<svg width="64" height="64" viewBox="0 0 64 64" fill="none" xmlns="http://www.w3.org/2000/svg">
<path d="M49.7556 5.4734C25.1061 -10.9018 -6.42154 12.0289 1.14503 40.493C10.2747 71.8538 54.0516 71.682 62.9325 40.2427L62.9694 40.1047C66.4662 27.2439 60.8286 12.7992 49.7572 5.4734H49.7556ZM55.8634 30.2561C55.13 30.476 54.371 30.5979 53.6023 30.6653C51.3877 30.8595 49.1618 30.8162 46.9408 30.7632C45.8287 30.7359 44.7166 30.7054 43.6045 30.7006C42.6512 30.6958 41.5632 30.5706 40.6677 30.9558C40.1526 31.1773 39.7209 31.5768 39.4432 32.0631C38.7179 33.3325 39.2972 34.4959 39.8653 35.6594C41.3433 38.6893 42.8502 41.7913 44.2464 44.8934C44.9525 46.4628 45.6377 48.0435 46.2893 49.6371C47.2826 52.0667 48.2599 54.3632 48.3546 57.0287C43.6574 60.1196 38.0439 61.9233 32.0131 61.9233C18.9148 61.9233 7.76959 53.4308 3.77527 41.6645C5.74435 41.2441 7.72947 40.8734 9.79803 40.8124C13.7442 40.6952 17.692 41.1398 21.5515 41.9438C22.3747 42.1155 23.2943 42.5022 24.002 41.8106C24.2507 41.5666 24.3663 41.2296 24.355 40.8862C24.3486 40.7209 24.3101 40.5652 24.2555 40.4192C24.1432 40.1769 23.9843 39.9699 23.8319 39.7532C23.5751 39.3873 23.3168 39.0214 23.06 38.6556C22.7294 38.1854 22.3988 37.7152 22.0682 37.2433C21.7441 36.7828 21.4199 36.3206 21.0941 35.86C20.8598 35.5262 20.6239 35.194 20.388 34.8618C19.7301 33.9182 19.2149 32.9088 18.8378 31.8625C18.4238 30.8643 18.1188 29.8052 17.9439 28.6914C17.8332 27.9821 17.777 27.2776 17.7754 26.5827C17.7497 19.8555 22.6363 13.9338 29.4872 12.8602C30.2783 12.7367 31.0647 12.6821 31.8382 12.6933C32.7673 12.7062 33.6805 12.8137 34.5663 13.0063C35.3045 13.1667 36.0234 13.3866 36.7183 13.6626C39.2009 14.6447 41.3722 16.3554 42.9 18.5444C43.4793 19.3741 44.0698 20.2037 44.7824 20.9243C46.6808 22.8436 49.0912 24.198 51.492 25.3856C52.8978 26.0805 54.3453 26.6951 55.7768 27.2953C56.3465 27.5344 57.0108 28.0736 57.1135 28.7332C57.2355 29.5163 56.5117 30.0282 55.8618 30.2561H55.8634Z" fill="url(#paint0_linear_120_3)"/>
<path d="M55.7783 27.2953C54.3453 26.6951 52.8993 26.0805 51.4936 25.3856C49.0928 24.198 46.6824 22.8436 44.7839 20.9243C44.0698 20.2021 43.4809 19.3725 42.9015 18.5444C41.3738 16.3555 39.2025 14.6464 36.7199 13.6626C36.025 13.3882 35.3061 13.1667 34.5679 13.0063C33.682 12.8137 32.7689 12.7062 31.8397 12.6933C31.0646 12.6821 30.2799 12.7367 29.4887 12.8602C22.6379 13.9338 17.7513 19.8555 17.777 26.5828C17.7802 27.2792 17.8348 27.9837 17.9455 28.6914C18.1204 29.8052 18.4253 30.8659 18.8394 31.8625C19.2181 32.9088 19.7316 33.9182 20.3896 34.8618C20.6255 35.194 20.8598 35.5278 21.0957 35.86C21.4199 36.3206 21.7456 36.7812 22.0698 37.2433C22.4004 37.7135 22.731 38.1837 23.0616 38.6556C23.3183 39.0214 23.5767 39.3873 23.8335 39.7532C23.9859 39.9715 24.1464 40.1769 24.2571 40.4192C24.3117 40.5653 24.3518 40.7209 24.3566 40.8862C24.3695 41.2312 24.2539 41.5682 24.0036 41.8106C23.2943 42.5006 22.3763 42.1139 21.5531 41.9438C17.6936 41.1398 13.7442 40.6936 9.79962 40.8124C7.73105 40.8734 5.74753 41.2441 3.77686 41.6645C7.77117 53.4292 18.9164 61.9233 32.0147 61.9233C38.0455 61.9233 43.659 60.118 48.3562 57.0287C48.2615 54.3632 47.2842 52.0667 46.2908 49.6371C45.6393 48.0436 44.9541 46.4628 44.2479 44.8934C42.8518 41.7913 41.3465 38.6877 39.8669 35.6594C39.2988 34.496 38.7195 33.3325 39.4448 32.0631C39.7225 31.5768 40.1541 31.1773 40.6693 30.9558C41.5664 30.569 42.6528 30.6958 43.606 30.7006C44.7182 30.7054 45.8303 30.7359 46.9424 30.7632C49.1618 30.8178 51.3892 30.8595 53.6038 30.6653C54.3709 30.5979 55.13 30.4744 55.865 30.2561C56.5149 30.0282 57.2371 29.5163 57.1167 28.7332C57.014 28.0752 56.3496 27.5344 55.7799 27.2953H55.7783Z" fill="black"/>
<defs>
<linearGradient id="paint0_linear_120_3" x1="42.8983" y1="62.0726" x2="21.046" y2="2.03434" gradientUnits="userSpaceOnUse">
<stop stop-color="#9A73B8"/>
<stop offset="0.28" stop-color="#9C76B9"/>
<stop offset="0.54" stop-color="#A481BF"/>
<stop offset="0.79" stop-color="#B194C8"/>
<stop offset="1" stop-color="#C2ABD4"/>
</linearGradient>
</defs>
</svg>
