<svg width="32" height="32" viewBox="0 0 32 32" fill="none" xmlns="http://www.w3.org/2000/svg">
<path d="M26.7337 0H5.26626C2.35757 0 0 2.35757 0 5.26627V26.7381C0 29.6468 2.35757 32.0044 5.26626 32.0044H26.7381C29.6468 32.0044 32.0044 29.6468 32.0044 26.7381V5.26627C32.0044 2.35757 29.6468 0 26.7381 0H26.7337Z" fill="url(#paint0_linear_120_23)"/>
<path d="M22.4739 13.6466C22.4739 13.4629 22.627 13.3098 22.8107 13.3098H24.5822C24.6959 13.3098 24.8009 13.253 24.8665 13.1567L26.2137 11.0747C26.3624 10.8517 26.2006 10.5542 25.9294 10.5542H22.837C22.6489 10.5542 22.5002 10.4011 22.5002 10.2174V8.09605C22.5002 7.90797 22.3471 7.75488 22.1634 7.75488H18.9354C18.7473 7.75488 18.5986 7.90797 18.5986 8.09168V13.9965C17.4614 11.8139 15.1781 10.318 12.5494 10.318C8.78339 10.318 5.73035 13.3711 5.73035 17.1371C5.73035 20.9031 8.78339 23.9561 12.5494 23.9561C15.1869 23.9561 17.4701 22.4602 18.6073 20.2688C18.6248 21.2311 18.7211 21.9878 19.1628 22.6395C20.0026 23.8642 21.481 23.9386 22.8326 23.9386C23.4624 23.9386 23.9305 23.8817 24.6084 23.7768C24.7746 23.7505 24.8971 23.6062 24.8971 23.44V21.0211C24.8971 20.8287 24.7396 20.6756 24.5472 20.6844L23.4974 20.7237C22.4521 20.7237 22.4783 20.037 22.4783 19.2191V13.6466H22.4739ZM12.5494 20.1988C10.861 20.1988 9.4876 18.8298 9.4876 17.1371C9.4876 15.4443 10.8567 14.0753 12.5494 14.0753C14.2421 14.0753 15.6112 15.4443 15.6112 17.1371C15.6112 18.8298 14.2421 20.1988 12.5494 20.1988Z" fill="white"/>
<defs>
<linearGradient id="paint0_linear_120_23" x1="24.3893" y1="26.6681" x2="5.13068" y2="2.17824" gradientUnits="userSpaceOnUse">
<stop stop-color="#00008B"/>
<stop offset="1" stop-color="#1A6AFF"/>
</linearGradient>
</defs>
</svg>
