<svg width="20" height="20" viewBox="0 0 20 20" fill="none" xmlns="http://www.w3.org/2000/svg">
<path fill-rule="evenodd" clip-rule="evenodd" d="M9.01507 0.356569C4.22195 0.858112 0.484375 4.95157 0.484375 9.92706C0.484375 15.2412 4.74808 19.5491 10.0076 19.5491C15.2671 19.5491 19.5309 15.2412 19.5309 9.92706C19.5309 4.95116 15.7927 0.857445 10.9991 0.356445V2.41784C14.6709 2.90799 17.5047 6.08315 17.5047 9.92706C17.5047 14.1105 14.1482 17.5019 10.0076 17.5019C5.86715 17.5019 2.5106 14.1105 2.5106 9.92706C2.5106 6.08358 5.34372 2.90867 9.01507 2.41799V0.356569Z" fill="#494982"/>
<path fill-rule="evenodd" clip-rule="evenodd" d="M5.03943 14.0213C6.96943 16.4367 10.4051 17.1413 13.1496 15.5404C16.1862 13.769 17.2265 9.84587 15.4734 6.77774C13.7202 3.7096 9.83729 2.65838 6.80075 4.42976C4.05646 6.03062 2.94253 9.38887 4.0475 12.2852L5.85399 11.2314C5.29351 9.34534 6.06346 7.24927 7.82473 6.22181C9.88179 5.02184 12.5121 5.73396 13.6998 7.81234C14.8874 9.89074 14.1826 12.5484 12.1255 13.7484C10.3641 14.7758 8.18232 14.4014 6.84591 12.9675L5.03943 14.0213Z" fill="#494982"/>
<path fill-rule="evenodd" clip-rule="evenodd" d="M8.95126 6.90332C7.7188 7.34392 6.83594 8.53172 6.83594 9.92792C6.83594 11.6993 8.25711 13.1353 10.0103 13.1353C11.7635 13.1353 13.1848 11.6993 13.1848 9.92792C13.1848 8.53205 12.3022 7.34445 11.0702 6.90365V9.92785H11.0684C11.0684 10.5183 10.5947 10.9971 10.0103 10.9971C9.42589 10.9971 8.95212 10.5184 8.95212 9.92792L8.95126 6.90332Z" fill="#494982"/>
</svg>
