<svg width="100" height="94" viewBox="0 0 100 94" fill="none" xmlns="http://www.w3.org/2000/svg">
<path d="M66.5 81V80.5L37 80.9107H4V50.5V17.5H47.5H89V40V59C89.57 59.0515 91.5 59 92.5 59H93.3932V6.42083C93.3932 3.32604 90.8759 0.808243 87.7813 0.808243H5.61235C2.51779 0.808243 0 3.32604 0 6.42083V80.0391C0 83.1339 2.51779 85.6515 5.61235 85.6515L66.5 85.5V84V82.5V81ZM80.4954 10.2329C80.4954 9.08841 81.4231 8.1604 82.5676 8.1604H84.6399C85.7846 8.1604 86.7121 9.08817 86.7121 10.2329V12.5816C86.7121 13.7261 85.7843 14.6538 84.6399 14.6538H82.5676C81.4229 14.6538 80.4954 13.7261 80.4954 12.5816V10.2329ZM70.8593 10.2329C70.8593 9.08841 71.787 8.1604 72.9315 8.1604H75.004C76.1487 8.1604 77.0762 9.08817 77.0762 10.2329V12.5816C77.0762 13.7261 76.1485 14.6538 75.004 14.6538H72.9315C71.787 14.6538 70.8593 13.7261 70.8593 12.5816V10.2329ZM61.2229 10.2329C61.2229 9.08841 62.1509 8.1604 63.2952 8.1604H65.3674C66.5121 8.1604 67.4399 9.08817 67.4399 10.2329V12.5816C67.4399 13.7261 66.5121 14.6538 65.3674 14.6538H63.2952C62.1509 14.6538 61.2229 13.7261 61.2229 12.5816V10.2329Z" fill="#ffffff"/>
<path d="M99.9867 76.9584L99.364 73.4268C99.2799 72.9513 98.8268 72.6336 98.3507 72.7174L95.2102 73.2709C94.8332 72.3862 94.3517 71.5575 93.7802 70.799L95.8315 68.3539C95.9806 68.1767 96.0532 67.9469 96.0332 67.7157C96.0127 67.4844 95.9013 67.2711 95.7236 67.1218L92.977 64.8166C92.7993 64.6675 92.5691 64.5952 92.3381 64.6154C92.1069 64.6356 91.8935 64.7468 91.7444 64.9245L89.695 67.3678C88.8537 66.9391 87.9538 66.6086 87.011 66.3904V63.2014C87.011 62.7184 86.6193 62.3264 86.1364 62.3264H82.55C82.0674 62.3264 81.6754 62.7184 81.6754 63.2014V66.3904C80.7321 66.6083 79.8332 66.9391 78.9914 67.3678L76.9415 64.9247C76.631 64.5547 76.0795 64.5066 75.7092 64.8169L72.9623 67.1218C72.7846 67.2711 72.6734 67.4844 72.6529 67.7157C72.6329 67.9469 72.7053 68.1769 72.8544 68.3546L74.9059 70.7993C74.3354 71.5575 73.8529 72.3867 73.4759 73.2711L70.3354 72.7174C69.8606 72.6339 69.4065 72.9513 69.3222 73.4268L68.6997 76.9584C68.6594 77.1867 68.7116 77.4215 68.8442 77.6118C68.9778 77.8021 69.18 77.9314 69.4086 77.9716L72.5515 78.5255C72.6027 79.4993 72.7723 80.4413 73.0452 81.3384L70.2828 82.9327C70.0818 83.0482 69.9354 83.2396 69.8751 83.4635C69.8151 83.6876 69.8468 83.9262 69.9625 84.1272L71.7554 87.2327C71.8709 87.4337 72.0624 87.5801 72.2862 87.6401C72.3608 87.6601 72.4367 87.6699 72.5127 87.6699C72.6648 87.6699 72.8156 87.6304 72.9499 87.5527L75.7144 85.9565C76.3645 86.6531 77.0984 87.2703 77.9005 87.7923L76.8089 90.7911C76.7298 91.0093 76.74 91.2498 76.8382 91.46C76.9363 91.6703 77.1137 91.833 77.3316 91.912L80.7007 93.1382C80.7974 93.1734 80.8988 93.1915 81 93.1915C81.1262 93.1915 81.2532 93.1641 81.3701 93.1094C81.5804 93.0115 81.7425 92.8338 81.8218 92.6157L82.9132 89.6169C83.3811 89.6736 83.8574 89.7028 84.3406 89.7028C84.8238 89.7028 85.3 89.6731 85.768 89.6169L86.8596 92.6157C86.9386 92.8338 87.1015 93.0115 87.3113 93.1094C87.428 93.1639 87.5544 93.1915 87.6814 93.1915C87.7823 93.1915 87.8838 93.1739 87.9805 93.1382L91.3501 91.912C91.5675 91.833 91.7451 91.6698 91.843 91.46C91.9411 91.2498 91.9516 91.0093 91.8723 90.7911L90.7807 87.7928C91.582 87.2708 92.3159 86.6531 92.9668 85.957L95.7313 87.5532C95.8653 87.6304 96.0163 87.6704 96.1685 87.6704C96.2442 87.6704 96.3209 87.6601 96.3949 87.6406C96.619 87.5806 96.81 87.4337 96.9257 87.2332L98.7186 84.1272C98.8344 83.9267 98.8661 83.6876 98.806 83.4635C98.7458 83.2401 98.5993 83.0487 98.3984 82.9327L95.6365 81.3389C95.9094 80.4416 96.0785 79.4995 96.1297 78.526L99.2726 77.9719C99.5012 77.9316 99.7041 77.8023 99.8369 77.6121C99.9748 77.4216 100.027 77.1867 99.9867 76.9584ZM84.3434 82.5703C81.687 82.5703 79.5331 80.4163 79.5331 77.7597C79.5331 75.1031 81.6873 72.9494 84.3434 72.9494C87.0001 72.9494 89.154 75.1031 89.154 77.7597C89.154 80.4163 87.0001 82.5703 84.3434 82.5703Z" fill="#ffffff"/>
<path d="M39.2196 53.0504C39.2196 51.9188 38.5564 50.8793 37.5298 50.4026L28.1342 46.0371L37.53 41.6711C38.5564 41.1939 39.2196 40.1547 39.2196 39.0236V38.9476C39.2196 37.9451 38.715 37.0247 37.8705 36.4867C37.4033 36.1883 36.8592 36.0305 36.2974 36.0305C35.874 36.0305 35.449 36.1236 35.0687 36.3003L20.0476 43.2855C19.0215 43.7627 18.3588 44.8019 18.3588 45.9328V46.1416C18.3588 47.2711 19.0213 48.3096 20.0479 48.7892L35.0703 55.7751C35.4587 55.9549 35.8724 56.0461 36.2996 56.0461C36.8563 56.0461 37.3988 55.888 37.8705 55.588C38.7154 55.0479 39.2198 54.1282 39.2198 53.1268L39.2196 53.0504Z" fill="#ffffff"/>
<path d="M54.0403 28.9128C53.4924 28.1627 52.6111 27.715 51.6826 27.715H51.6078C50.3328 27.715 49.215 28.5306 48.8266 29.743L38.9298 60.408C38.6481 61.2934 38.8067 62.2686 39.3539 63.0184C39.9018 63.7681 40.7832 64.216 41.7117 64.216H41.7867C43.0612 64.216 44.1783 63.4002 44.5662 62.1881L54.4618 31.5254C54.7462 30.6407 54.5885 29.6642 54.0403 28.9128Z" fill="#ffffff"/>
<path d="M73.3457 43.2852L58.3244 36.3C57.9453 36.1238 57.5209 36.0307 57.0975 36.0307C56.536 36.0307 55.9916 36.1881 55.5247 36.486C54.6788 37.0249 54.1742 37.945 54.1742 38.9476V39.0235C54.1742 40.1537 54.8369 41.1932 55.8642 41.6723L65.2596 46.0373L55.864 50.4026C54.8374 50.8793 54.1742 51.9188 54.1742 53.0504V53.1268C54.1742 54.1282 54.6788 55.0476 55.5242 55.5882C55.9943 55.8877 56.5372 56.0461 57.0947 56.0461C57.5214 56.0461 57.9346 55.9549 58.3256 55.7744L73.3476 48.7885C74.3732 48.3101 75.0355 47.2713 75.0355 46.1419V45.933C75.0348 44.8019 74.372 43.7627 73.3457 43.2852Z" fill="#ffffff"/>
</svg>
