<svg xmlns="http://www.w3.org/2000/svg" width="152" height="45" viewBox="0 0 152 45" fill="none"><path d="M148.153 22.5379H144.947V18.9051H151.979V19.2557C151.979 22.1552 151.978 25.0546 151.979 27.954C151.979 28.1348 151.992 28.2903 151.772 28.3933C148.436 29.9502 144.963 30.5118 141.368 29.6001C137.58 28.6388 135.141 25.6545 134.767 21.7623C134.569 19.706 134.813 17.7241 135.791 15.8762C137.11 13.386 139.225 11.9336 141.941 11.3729C144.426 10.8602 146.888 11.0406 149.273 11.9414C150.132 12.2658 150.887 12.77 151.586 13.4254C150.652 14.4437 149.728 15.4499 148.795 16.4669C147.937 15.6086 146.947 15.0433 145.757 14.8668C144.735 14.7153 143.713 14.7007 142.714 14.9946C141.107 15.4662 139.947 16.4694 139.313 18.0227C138.666 19.6034 138.638 21.2231 139.203 22.8302C139.951 24.9572 141.803 26.258 144.153 26.3543C145.457 26.4075 146.7 26.1499 147.888 25.6075C148.089 25.5154 148.163 25.4024 148.159 25.1763C148.144 24.3124 148.153 23.4484 148.153 22.5379Z" fill="#00365F"></path><path d="M53.7905 29.5376H49.8359V11.5898H53.7771V18.2568H61.4825V11.594H65.4317V29.5321H61.4964V21.8106H53.7905V29.5376Z" fill="#00365F"></path><path d="M68.3438 11.5898H80.5389V15.2181H72.2994V18.583H80.0809V22.2309H72.3034V25.8871H80.9876V29.5304H68.3438V11.5898Z" fill="#00365F"></path><path d="M123.733 22.3724H128.121C127.386 20.5175 126.663 18.6928 125.913 16.7998C125.168 18.7038 124.455 20.5271 123.733 22.3724ZM135.484 29.5482C134.639 29.5482 133.842 29.5482 133.044 29.5482C132.459 29.5482 131.874 29.5398 131.289 29.5524C131.091 29.5566 130.995 29.4916 130.921 29.3052C130.485 28.2105 130.03 27.124 129.596 26.0283C129.514 25.8196 129.417 25.7409 129.185 25.7421C127.048 25.7523 124.91 25.7523 122.773 25.7421C122.538 25.7406 122.44 25.8211 122.36 26.0295C121.942 27.1191 121.507 28.2021 121.084 29.2893C121.023 29.4445 120.972 29.5549 120.764 29.5532C119.436 29.5426 118.108 29.5475 116.781 29.5464C116.739 29.5464 116.697 29.5337 116.621 29.5218C116.85 28.9906 117.07 28.4779 117.292 27.9653C119.609 22.6102 121.929 17.2559 124.236 11.8972C124.349 11.6358 124.484 11.5535 124.758 11.5588C125.635 11.5756 126.513 11.5694 127.391 11.5617C127.581 11.56 127.69 11.6053 127.773 11.797C130.312 17.6432 132.858 23.4864 135.403 29.3297C135.425 29.3797 135.441 29.4318 135.484 29.5482Z" fill="#00365F"></path><path d="M102.04 19.1584C102.116 19.1697 102.181 19.1878 102.246 19.1878C103.089 19.1882 103.933 19.2078 104.775 19.1758C105.208 19.1593 105.653 19.0991 106.066 18.9723C106.991 18.687 107.447 18.0205 107.452 17.055C107.456 16.1352 107.014 15.4834 106.098 15.1903C105.655 15.0488 105.178 14.9727 104.712 14.9533C103.829 14.9169 102.944 14.9427 102.04 14.9427V19.1584ZM98.0625 29.5249V11.5928C98.1493 11.5826 98.2261 11.566 98.3025 11.5664C100.766 11.5758 103.229 11.57 105.692 11.6066C106.637 11.621 107.571 11.788 108.461 12.1341C110.361 12.8731 111.395 14.2815 111.534 16.2924C111.589 17.1007 111.553 17.9452 111.377 18.733C110.937 20.7064 109.583 21.8185 107.659 22.2375C106.852 22.413 106.014 22.4788 105.187 22.5217C104.266 22.5694 103.343 22.5343 102.42 22.5355C102.3 22.5355 102.179 22.5355 102.024 22.5355V29.5249H98.0625Z" fill="#00365F"></path><path d="M87.8382 25.8983H95.1688V29.5286H83.8906V11.5977H87.8382V25.8983Z" fill="#00365F"></path><path d="M34.879 21.9153C34.709 24.4986 33.8581 26.843 32.3844 28.9692C32.24 29.1776 32.0887 29.2587 31.8332 29.2557C30.7195 29.241 29.6059 29.2493 28.492 29.2493H28.1545C31.7346 23.7182 31.7326 18.2251 28.1693 12.6856C28.2264 12.682 28.2904 12.6743 28.3544 12.6743C29.5467 12.6735 30.7396 12.6679 31.932 12.682C32.0617 12.6837 32.2393 12.7658 32.3123 12.8688C34.233 15.5807 35.0979 18.5965 34.879 21.9153ZM24.5039 29.2293H17.3685V26.0664V25.7267H18.8845V21.9566H17.3925V18.441H23.0126V25.7196H24.5039V29.2293ZM13.7892 29.231C13.7062 29.2372 13.6118 29.251 13.5176 29.251C12.3482 29.2525 11.1785 29.2449 10.0094 29.2578C9.77693 29.2602 9.64502 29.1761 9.51556 28.9945C6.11738 24.224 6.11907 17.7077 9.51953 12.9211C9.64144 12.7492 9.7607 12.6682 9.98207 12.6703C11.2514 12.6828 12.5208 12.6763 13.7977 12.6763C10.2244 18.2178 10.2257 23.7082 13.7892 29.231ZM20.9381 12.489C22.2506 12.4861 23.3161 13.5575 23.3091 14.8741C23.3023 16.1747 22.2468 17.2123 20.9334 17.2089C19.6227 17.2055 18.5809 16.1604 18.5827 14.8509C18.5844 13.5484 19.6378 12.4922 20.9381 12.489ZM20.9362 0C9.37346 0 0 9.37346 0 20.9362C0 32.4993 9.37346 41.8728 20.9362 41.8728C32.4993 41.8728 41.8728 32.4993 41.8728 20.9362C41.8728 9.37346 32.4993 0 20.9362 0Z" fill="#E00700"></path><path d="M64.1033 38.6622C64.7182 38.6622 65.2803 39.11 65.3064 39.8479H62.8478C62.9354 38.9521 63.6117 38.6622 64.1033 38.6622ZM67.9084 36.9856C68.2951 36.9856 68.6113 37.2053 68.6113 37.6354C68.6113 38.0308 68.3739 38.4171 67.8382 38.6541L67.8297 38.6452C67.5136 38.3116 67.2149 37.9253 67.2149 37.5563C67.2149 37.1964 67.5398 36.9856 67.9084 36.9856ZM70.0777 41.0868C70.4202 40.4895 70.6223 39.8134 70.6927 39.1545H69.6387C69.6123 39.5588 69.5332 39.9713 69.3928 40.3402C69.2547 40.7016 69.0784 41.0226 68.8484 41.2887C68.5057 41.6839 68.0667 41.9387 67.5662 41.9387C66.9746 41.9387 66.5687 41.685 66.4151 41.2615H65.2892C65.1045 41.7009 64.6742 41.9204 64.1297 41.9204C63.5325 41.9204 62.9178 41.4899 62.8478 40.6118H66.3688H66.3704C66.4608 40.1796 66.8027 39.8556 67.3553 39.6463C67.3553 39.6463 67.8663 39.4578 68.3739 39.2425C69.0767 38.9175 69.6036 38.3378 69.6036 37.6003C69.6036 36.5552 68.7076 36.1953 67.8997 36.1953C66.8812 36.1953 66.126 36.7311 66.126 37.5827C66.126 38.0832 66.3981 38.5576 66.8019 39.0317C66.5885 39.1081 66.383 39.2057 66.1956 39.3242C65.8703 38.4269 65.1218 37.8454 64.1033 37.8454C62.7599 37.8454 61.7852 38.8552 61.7852 40.278C61.7852 41.6305 62.6542 42.7896 64.1737 42.7896C64.872 42.7896 65.4004 42.5365 65.7661 42.1787C66.1386 42.5573 66.6976 42.7901 67.3817 42.7901C68.2249 42.7901 68.9095 42.4567 69.4364 41.9387L70.1129 42.6762H71.544L70.0777 41.0868Z" fill="#E00700"></path><path d="M76.1975 39.8555C76.1711 39.1173 75.6097 38.6691 74.9956 38.6691C74.5046 38.6691 73.8288 38.9589 73.7412 39.8555H76.1975ZM75.022 41.9297C75.5657 41.9297 75.9956 41.7098 76.1798 41.2705H77.2062C76.9871 42.0263 76.2849 42.7995 75.066 42.7995C73.5482 42.7995 72.6797 41.6396 72.6797 40.2862C72.6797 38.8625 73.6533 37.8516 74.9956 37.8516C76.443 37.8516 77.3466 39.0293 77.2588 40.6202H73.7412C73.8112 41.4989 74.4255 41.9297 75.022 41.9297Z" fill="#E00700"></path><path d="M80.3879 37.8516C81.5281 37.8516 81.9933 38.5898 81.9933 39.7147V42.6851H80.9494V39.9697C80.9494 39.3283 80.8529 38.7042 80.0545 38.7042C79.2564 38.7042 78.958 39.3194 78.958 40.1716V42.6851H77.9141V37.9571H78.958V38.6162C79.23 38.1241 79.7303 37.8516 80.3879 37.8516Z" fill="#E00700"></path><path d="M84.07 36.7109V37.9589H85.0176V38.7147H84.07V41.2899C84.07 41.7732 84.184 41.8874 84.6313 41.8874H85.0087V42.687H84.2367C83.2278 42.687 83.0259 42.4147 83.0259 41.4479V38.7147H82.3242V37.9589H83.0259V36.7109H84.07Z" fill="#E00700"></path><path d="M88.7092 39.8555C88.6828 39.1173 88.1216 38.6691 87.5073 38.6691C87.0163 38.6691 86.3407 38.9589 86.2529 39.8555H88.7092ZM87.5337 41.9297C88.0776 41.9297 88.5073 41.7098 88.6917 41.2705H89.7181C89.4988 42.0263 88.7968 42.7995 87.5777 42.7995C86.0599 42.7995 85.1914 41.6396 85.1914 40.2862C85.1914 38.8625 86.165 37.8516 87.5073 37.8516C88.9548 37.8516 89.8583 39.0293 89.7708 40.6202H86.2529C86.3231 41.4989 86.9372 41.9297 87.5337 41.9297Z" fill="#E00700"></path><path d="M92.505 38.9951C91.8468 38.9951 91.4698 39.2587 91.4698 40.2079V42.6861H90.4258V37.9583H91.4522V38.8016C91.7066 38.2744 92.1627 37.9583 92.733 37.9492C92.8121 37.9492 92.9261 37.9583 93.0051 37.967V39.0215C92.8296 39.0039 92.6628 38.9951 92.505 38.9951Z" fill="#E00700"></path><path d="M96.8392 40.3211C96.8392 39.3283 96.4007 38.7042 95.6726 38.7042C94.9883 38.7042 94.4531 39.2314 94.4531 40.3211C94.4531 41.4109 94.9883 41.9472 95.6726 41.9472C96.4007 41.9472 96.8392 41.323 96.8392 40.3211ZM94.4971 38.5898C94.7777 38.1237 95.2691 37.8516 95.9006 37.8516C97.05 37.8516 97.9272 38.8097 97.9272 40.3211C97.9272 41.8417 97.05 42.7995 95.9006 42.7995C95.2691 42.7995 94.7777 42.5273 94.4971 42.0612V44.2233H93.4531V37.9571H94.4971V38.5898Z" fill="#E00700"></path><path d="M100.689 38.9951C100.031 38.9951 99.6533 39.2587 99.6533 40.2079V42.6861H98.6094V37.9583H99.6358V38.8016C99.8904 38.2744 100.346 37.9583 100.917 37.9492C100.995 37.9492 101.109 37.9583 101.189 37.967V39.0215C101.013 39.0039 100.846 38.9951 100.689 38.9951Z" fill="#E00700"></path><path d="M102.677 42.6921H101.633V37.964H102.677V42.6921ZM102.677 37.3749H101.633V36.3203H102.677V37.3749Z" fill="#E00700"></path><path d="M105.294 38.6515C104.838 38.6515 104.417 38.8538 104.417 39.1699C104.417 39.4866 104.645 39.6532 105.049 39.7323L105.715 39.8642C106.671 40.049 107.399 40.3475 107.399 41.2705C107.399 42.2548 106.47 42.7995 105.399 42.7995C104.242 42.7995 103.469 42.1405 103.355 41.2441H104.373C104.47 41.7274 104.82 42.0088 105.435 42.0088C105.978 42.0088 106.382 41.7802 106.382 41.3937C106.382 41.0067 106.031 40.8312 105.566 40.7432L104.856 40.6026C104.057 40.4443 103.435 40.0841 103.435 39.2228C103.435 38.3877 104.33 37.8516 105.356 37.8516C106.277 37.8516 107.119 38.3001 107.312 39.2492H106.329C106.215 38.8185 105.821 38.6515 105.294 38.6515Z" fill="#E00700"></path><path d="M111.276 39.8555C111.249 39.1173 110.688 38.6691 110.074 38.6691C109.583 38.6691 108.907 38.9589 108.819 39.8555H111.276ZM110.1 41.9297C110.644 41.9297 111.074 41.7098 111.258 41.2705H112.285C112.065 42.0263 111.363 42.7995 110.144 42.7995C108.626 42.7995 107.758 41.6396 107.758 40.2862C107.758 38.8625 108.731 37.8516 110.074 37.8516C111.521 37.8516 112.425 39.0293 112.337 40.6202H108.819C108.89 41.4989 109.504 41.9297 110.1 41.9297Z" fill="#E00700"></path><path d="M53.0158 40.462C52.644 40.4969 52.3273 40.5377 52.066 40.5841C51.8046 40.6306 51.5899 40.6885 51.4213 40.7581C51.2528 40.828 51.1298 40.9108 51.0513 41.0067C50.9728 41.1022 50.9335 41.2173 50.9335 41.3505C50.9335 41.5539 51.0118 41.7136 51.1688 41.83C51.3257 41.9461 51.5346 42.0042 51.7959 42.0042C52.1792 42.0042 52.4783 41.8982 52.6931 41.686C52.9082 41.4739 53.0158 41.1212 53.0158 40.6277V40.462ZM52.0313 37.8398C52.3213 37.8398 52.59 37.8748 52.8371 37.9442C53.0839 38.014 53.297 38.1273 53.4776 38.2841C53.6574 38.4409 53.7955 38.6472 53.8912 38.9025C53.9869 39.1582 54.0318 39.4718 54.0262 39.8434C54.0262 39.9017 54.0248 39.9784 54.022 40.0744C54.0188 40.1701 54.0175 40.2735 54.0175 40.3835C54.0175 40.4941 54.016 40.6087 54.0133 40.7276C54.0101 40.8468 54.0086 40.9587 54.0086 41.0633C54.0086 41.3594 54.0203 41.6513 54.0435 41.9385C54.0667 42.2263 54.1015 42.4686 54.1483 42.666H53.1986C53.1811 42.5675 53.1651 42.4715 53.1507 42.3786C53.136 42.2858 53.123 42.1582 53.1115 41.9953C52.9661 42.2567 52.7599 42.4526 52.493 42.5834C52.2258 42.7143 51.918 42.7793 51.5695 42.7793C51.314 42.7793 51.0801 42.7459 50.8684 42.6794C50.6559 42.6126 50.473 42.5181 50.3192 42.396C50.1652 42.2743 50.0464 42.1276 49.9622 41.9563C49.8778 41.7849 49.8359 41.5919 49.8359 41.3765C49.8359 41.0865 49.9201 40.8455 50.0886 40.6538C50.257 40.462 50.4849 40.3052 50.7723 40.1831C51.0601 40.0614 51.394 39.9685 51.774 39.9046C52.1547 39.8404 52.5595 39.7857 52.9894 39.7389V39.6257C52.9894 39.4283 52.9633 39.2641 52.9112 39.1335C52.859 39.0027 52.7878 38.8982 52.6978 38.8198C52.6078 38.7413 52.5017 38.6866 52.3798 38.6545C52.2577 38.6224 52.1241 38.6062 51.9792 38.6062C51.7118 38.6062 51.4881 38.6762 51.3081 38.8155C51.1281 38.9548 51.0322 39.1671 51.0207 39.4515H50.0013C50.0188 39.2133 50.0798 38.9957 50.1841 38.7979C50.289 38.6007 50.4296 38.4307 50.607 38.2882C50.7839 38.1461 50.9931 38.0357 51.2341 37.9574C51.4751 37.8789 51.7406 37.8398 52.0313 37.8398Z" fill="#6D6E71"></path><path d="M56.1069 38.6331C56.2405 38.3889 56.4275 38.2019 56.6689 38.0711C56.9099 37.9405 57.1958 37.875 57.5268 37.875C57.8114 37.875 58.0541 37.9186 58.2543 38.0058C58.4547 38.0928 58.6187 38.2179 58.7467 38.3804C58.8744 38.5431 58.9686 38.7374 59.0297 38.9641C59.0907 39.1905 59.1213 39.443 59.1213 39.722V42.6665H58.0843V39.9745C58.0843 39.8176 58.0758 39.664 58.0582 39.513C58.0407 39.3619 58.0016 39.2268 57.9409 39.1079C57.8795 38.9886 57.7897 38.8944 57.6706 38.8248C57.5517 38.755 57.3932 38.7203 57.1958 38.7203C56.9984 38.7203 56.8301 38.7565 56.6906 38.829C56.5512 38.9016 56.4379 39.002 56.3509 39.1296C56.2637 39.2573 56.2011 39.4115 56.1635 39.5912C56.1258 39.7712 56.1069 39.9661 56.1069 40.1751V42.6665H55.0703V37.9795H56.1069V38.6331Z" fill="#6D6E71"></path><path d="M117.063 37.875C117.324 37.875 117.571 37.9158 117.804 37.9969C118.035 38.0782 118.243 38.193 118.426 38.3409C118.609 38.4891 118.762 38.6678 118.884 38.8767C119.006 39.086 119.089 39.3209 119.136 39.5823H118.126C118.079 39.3328 117.965 39.1296 117.781 38.9728C117.599 38.8157 117.35 38.7374 117.037 38.7374C116.874 38.7374 116.722 38.768 116.579 38.8288C116.437 38.8897 116.312 38.9856 116.205 39.1162C116.097 39.247 116.013 39.4113 115.952 39.6087C115.891 39.8059 115.861 40.0441 115.861 40.323C115.861 40.6016 115.891 40.841 115.952 41.0416C116.013 41.242 116.097 41.4074 116.205 41.5383C116.312 41.6687 116.437 41.7648 116.579 41.8257C116.722 41.8869 116.874 41.9171 117.037 41.9171C117.298 41.9171 117.535 41.8533 117.746 41.7253C117.959 41.5978 118.096 41.3768 118.16 41.0635H119.171C119.119 41.3364 119.026 41.5806 118.892 41.795C118.758 42.0103 118.596 42.1903 118.405 42.3353C118.213 42.4806 117.998 42.591 117.76 42.6663C117.521 42.742 117.275 42.7795 117.019 42.7795C116.671 42.7795 116.359 42.7172 116.083 42.5925C115.807 42.4676 115.573 42.2962 115.381 42.0781C115.19 41.8605 115.043 41.6023 114.941 41.303C114.84 41.0041 114.789 40.6801 114.789 40.3315C114.789 39.9831 114.84 39.6593 114.941 39.3602C115.043 39.0613 115.193 38.8014 115.39 38.5804C115.588 38.36 115.826 38.1873 116.105 38.062C116.383 37.9373 116.703 37.875 117.063 37.875Z" fill="#6D6E71"></path><path d="M121.962 41.9348C122.136 41.9348 122.296 41.9014 122.441 41.8344C122.586 41.768 122.714 41.6691 122.825 41.5383C122.935 41.4077 123.021 41.2422 123.082 41.0416C123.143 40.8416 123.173 40.6048 123.173 40.3319C123.173 40.0645 123.143 39.8295 123.082 39.6263C123.021 39.423 122.935 39.2545 122.825 39.1209C122.714 38.9873 122.586 38.8873 122.441 38.8205C122.296 38.7537 122.136 38.7201 121.962 38.7201C121.788 38.7201 121.628 38.7537 121.483 38.8205C121.338 38.8873 121.21 38.9873 121.1 39.1209C120.989 39.2545 120.904 39.423 120.843 39.6263C120.782 39.8295 120.751 40.0645 120.751 40.3319C120.751 40.6048 120.782 40.8416 120.843 41.0416C120.904 41.2422 120.989 41.4077 121.1 41.5383C121.21 41.6691 121.338 41.768 121.483 41.8344C121.628 41.9014 121.788 41.9348 121.962 41.9348ZM121.962 37.875C122.258 37.875 122.543 37.9246 122.816 38.023C123.089 38.1218 123.331 38.2713 123.543 38.4719C123.755 38.6723 123.925 38.9263 124.053 39.2341C124.181 39.5419 124.245 39.908 124.245 40.3319C124.245 40.7557 124.181 41.1218 124.053 41.4296C123.925 41.7374 123.755 41.9914 123.543 42.1918C123.331 42.3921 123.089 42.5404 122.816 42.6361C122.543 42.7318 122.258 42.7799 121.962 42.7799C121.666 42.7799 121.382 42.7318 121.108 42.6361C120.836 42.5404 120.593 42.3921 120.381 42.1918C120.169 41.9914 119.999 41.7374 119.871 41.4296C119.744 41.1218 119.68 40.7557 119.68 40.3319C119.68 39.908 119.744 39.5419 119.871 39.2341C119.999 38.9263 120.169 38.6723 120.381 38.4719C120.593 38.2713 120.836 38.1218 121.108 38.023C121.382 37.9246 121.666 37.875 121.962 37.875Z" fill="#6D6E71"></path><path d="M126.131 42.6665H125.094V37.9795H126.131V38.6331C126.264 38.3889 126.446 38.2015 126.675 38.0709C126.904 37.9401 127.176 37.875 127.489 37.875C127.855 37.875 128.147 37.9475 128.365 38.0928C128.583 38.2379 128.747 38.4413 128.857 38.7025C129.06 38.4062 129.293 38.1945 129.554 38.0664C129.816 37.9386 130.091 37.875 130.382 37.875C130.66 37.875 130.897 37.9186 131.092 38.0054C131.286 38.0928 131.445 38.2177 131.567 38.38C131.689 38.5431 131.777 38.7376 131.833 38.9641C131.887 39.1905 131.915 39.443 131.915 39.722V42.6665H130.878V39.9746C130.878 39.8176 130.871 39.664 130.857 39.5127C130.842 39.3619 130.807 39.2268 130.752 39.1075C130.697 38.9886 130.614 38.8942 130.504 38.8244C130.393 38.7548 130.242 38.7199 130.051 38.7199C129.859 38.7199 129.698 38.7561 129.567 38.829C129.437 38.9014 129.331 39.0016 129.249 39.1294C129.168 39.2573 129.11 39.4109 129.075 39.5912C129.04 39.7712 129.023 39.9658 129.023 40.1747V42.6665H127.986V39.9746C127.986 39.8176 127.979 39.664 127.964 39.5127C127.95 39.3619 127.915 39.2268 127.86 39.1075C127.805 38.9886 127.722 38.8942 127.611 38.8244C127.501 38.7548 127.35 38.7199 127.158 38.7199C126.967 38.7199 126.806 38.7561 126.675 38.829C126.544 38.9014 126.438 39.0016 126.357 39.1294C126.276 39.2573 126.218 39.4109 126.183 39.5912C126.148 39.7712 126.131 39.9658 126.131 40.1747V42.6665Z" fill="#6D6E71"></path><path d="M133.993 40.3232C133.993 40.5961 134.024 40.8329 134.085 41.0331C134.146 41.2336 134.231 41.4004 134.342 41.5342C134.452 41.6678 134.581 41.768 134.729 41.8346C134.878 41.9014 135.036 41.9348 135.204 41.9348C135.57 41.9348 135.855 41.7908 136.058 41.5034C136.261 41.2162 136.363 40.8225 136.363 40.3232C136.363 39.8295 136.261 39.4389 136.058 39.1515C135.855 38.8637 135.57 38.7203 135.204 38.7203C135.036 38.7203 134.878 38.7537 134.729 38.8201C134.581 38.8873 134.452 38.9858 134.342 39.1167C134.231 39.2471 134.146 39.4142 134.085 39.6176C134.024 39.8208 133.993 40.0562 133.993 40.3232ZM134.037 37.9794V38.607C134.176 38.3745 134.365 38.1943 134.603 38.0667C134.841 37.9392 135.117 37.875 135.431 37.875C135.715 37.875 135.981 37.9316 136.228 38.0448C136.475 38.1581 136.688 38.3224 136.868 38.5372C137.048 38.7521 137.189 39.0109 137.291 39.3126C137.392 39.6148 137.443 39.9516 137.443 40.3232C137.443 40.7004 137.392 41.0403 137.291 41.3424C137.189 41.6446 137.048 41.9031 136.868 42.1177C136.688 42.3326 136.475 42.4968 136.228 42.6099C135.981 42.7233 135.715 42.7799 135.431 42.7799C135.117 42.7799 134.841 42.7159 134.603 42.5883C134.365 42.4606 134.176 42.2805 134.037 42.048V44.1911H133V37.9794H134.037Z" fill="#6D6E71"></path><path d="M141.141 40.462C140.769 40.4969 140.453 40.5377 140.191 40.5841C139.93 40.6306 139.715 40.6885 139.546 40.7581C139.378 40.828 139.255 40.9108 139.176 41.0067C139.098 41.1022 139.059 41.2173 139.059 41.3505C139.059 41.5539 139.137 41.7136 139.294 41.83C139.45 41.9461 139.66 42.0042 139.921 42.0042C140.304 42.0042 140.604 41.8982 140.818 41.686C141.033 41.4739 141.141 41.1212 141.141 40.6277V40.462ZM140.156 37.8398C140.447 37.8398 140.715 37.8748 140.962 37.9442C141.209 38.014 141.422 38.1273 141.602 38.2841C141.782 38.4409 141.92 38.6472 142.016 38.9025C142.112 39.1582 142.157 39.4718 142.151 39.8434C142.151 39.9017 142.15 39.9784 142.147 40.0744C142.144 40.1701 142.142 40.2735 142.142 40.3835C142.142 40.4941 142.141 40.6087 142.138 40.7276C142.135 40.8468 142.134 40.9587 142.134 41.0633C142.134 41.3594 142.145 41.6513 142.169 41.9385C142.192 42.2263 142.227 42.4686 142.273 42.666H141.324C141.306 42.5675 141.29 42.4715 141.276 42.3786C141.261 42.2858 141.248 42.1582 141.237 41.9953C141.091 42.2567 140.885 42.4526 140.618 42.5834C140.351 42.7143 140.043 42.7793 139.694 42.7793C139.439 42.7793 139.205 42.7459 138.993 42.6794C138.781 42.6126 138.598 42.5181 138.444 42.396C138.29 42.2743 138.171 42.1276 138.087 41.9563C138.003 41.7849 137.961 41.5919 137.961 41.3765C137.961 41.0865 138.045 40.8455 138.213 40.6538C138.382 40.462 138.61 40.3052 138.897 40.1831C139.185 40.0614 139.519 39.9685 139.899 39.9046C140.279 39.8404 140.685 39.7857 141.115 39.7389V39.6257C141.115 39.4283 141.088 39.2641 141.036 39.1335C140.984 39.0027 140.913 38.8982 140.823 38.8198C140.733 38.7413 140.627 38.6866 140.505 38.6545C140.383 38.6224 140.249 38.6062 140.104 38.6062C139.837 38.6062 139.613 38.6762 139.433 38.8155C139.253 38.9548 139.157 39.1671 139.146 39.4515H138.126C138.144 39.2133 138.205 38.9957 138.309 38.7979C138.414 38.6007 138.555 38.4307 138.732 38.2882C138.909 38.1461 139.118 38.0357 139.359 37.9574C139.6 37.8789 139.866 37.8398 140.156 37.8398Z" fill="#6D6E71"></path><path d="M144.236 38.6331C144.369 38.3889 144.557 38.2019 144.797 38.0711C145.038 37.9405 145.325 37.875 145.656 37.875C145.94 37.875 146.183 37.9186 146.383 38.0058C146.584 38.0928 146.748 38.2179 146.876 38.3804C147.003 38.5431 147.097 38.7374 147.159 38.9641C147.22 39.1905 147.25 39.443 147.25 39.722V42.6665H146.213V39.9745C146.213 39.8176 146.205 39.664 146.187 39.513C146.17 39.3619 146.131 39.2268 146.07 39.1079C146.009 38.9886 145.918 38.8944 145.8 38.8248C145.68 38.755 145.522 38.7203 145.325 38.7203C145.127 38.7203 144.959 38.7565 144.819 38.829C144.68 38.9016 144.567 39.002 144.479 39.1296C144.393 39.2573 144.33 39.4115 144.292 39.5912C144.254 39.7712 144.236 39.9661 144.236 40.1751V42.6665H143.199V37.9795H144.236V38.6331Z" fill="#6D6E71"></path><path d="M148.061 44.1879V43.3951H148.453C148.563 43.3951 148.661 43.391 148.745 43.3821C148.829 43.3732 148.904 43.3474 148.971 43.3036C149.038 43.26 149.097 43.1949 149.15 43.1077C149.202 43.0205 149.254 42.9016 149.307 42.7503L149.359 42.6374L147.66 37.9766H148.793L149.855 41.3393L150.918 37.9766H151.981L150.335 42.6548C150.224 42.9566 150.118 43.2066 150.016 43.404C149.915 43.6012 149.797 43.758 149.664 43.8741C149.53 43.9905 149.373 44.0719 149.193 44.1183C149.013 44.1647 148.793 44.1879 148.531 44.1879H148.061Z" fill="#6D6E71"></path></svg>